<svg xmlns="http://www.w3.org/2000/svg" width="24" height="24" viewBox="0 0 24 24" fill="none">
<rect width="24" height="24" rx="4" fill="url(#paint0_linear_107_13)"/>
<path d="M13.3532 8.98226L15.0277 7.30686C14.8296 7.1088 14.6834 6.86495 14.602 6.59689C14.5207 6.32883 14.5067 6.04485 14.5613 5.77008C14.6159 5.49532 14.7374 5.23827 14.9151 5.02169C15.0927 4.8051 15.3211 4.63568 15.5799 4.52842C15.8387 4.42116 16.1199 4.37938 16.3987 4.40677C16.6775 4.43416 16.9452 4.52988 17.1782 4.68546C17.4111 4.84103 17.6021 5.05166 17.7343 5.29868C17.8664 5.5457 17.9356 5.82149 17.9356 6.10163C18.2158 6.10143 18.4918 6.17035 18.739 6.30229C18.9862 6.43423 19.197 6.62511 19.3528 6.85801C19.5086 7.09092 19.6045 7.35865 19.6321 7.6375C19.6597 7.91635 19.618 8.19769 19.5109 8.4566C19.4037 8.7155 19.2343 8.94398 19.0178 9.12178C18.8012 9.29957 18.5441 9.42121 18.2693 9.47589C17.9945 9.53057 17.7104 9.51662 17.4423 9.43527C17.1741 9.35392 16.9302 9.20768 16.7321 9.00951L15.1819 10.5606M8.14046 15.4709L8.99221 16.3227M6.78106 17.6821C9.1089 20.0108 11.8064 21.0891 12.803 20.0917C13.8012 19.0934 12.7229 16.3968 10.3942 14.0689C8.06635 11.7402 5.36885 10.6619 4.3723 11.6593C3.37404 12.6576 4.45236 15.3542 6.78106 17.6821Z" stroke="white" stroke-linecap="round" stroke-linejoin="round"/>
<path d="M12.8038 20.0917C16.1299 16.7647 16.939 12.1806 14.6103 9.85276C12.2825 7.52407 7.69835 8.33323 4.37225 11.6593" stroke="white" stroke-linecap="round" stroke-linejoin="round"/>
<defs>
<linearGradient id="paint0_linear_107_13" x1="0" y1="0" x2="24" y2="24" gradientUnits="userSpaceOnUse">
<stop offset="0.00156131" stop-color="#5A5A5A"/>
<stop offset="0.765518" stop-color="#151515"/>
</linearGradient>
</defs>
</svg>