<svg xmlns="http://www.w3.org/2000/svg" width="24" height="24" viewBox="0 0 24 24" fill="none">
<rect width="24" height="24" rx="4" fill="url(#paint0_radial_109_17)"/>
<path d="M19 8.16339V17.9694C19 18.4639 18.548 18.6998 18 19.0683C17.56 19.3648 17.0001 18.9973 17.0001 18.5122V8.93074C17.0001 8.73085 16.9261 8.54043 16.6861 8.42391C16.4461 8.30738 8.94827 4.57293 8.94827 4.57293C8.82728 4.5303 8.29929 4.21484 7.59531 4.55778C6.92633 4.88367 6.56234 5.23797 6.46934 5.40471L14.6491 9.65072C14.8661 9.75872 15.0001 9.92546 15.0001 10.1396V20.3728C14.9976 20.4883 14.962 20.6009 14.8969 20.6985C14.8319 20.7962 14.74 20.8752 14.6311 20.927C14.5275 20.9753 14.4136 21.0003 14.2981 21C14.1624 21.0013 14.0288 20.9672 13.9121 20.9014C13.6971 20.7773 6.13835 16.3864 5.63936 16.1012C5.39937 15.9648 5.11838 15.6853 5.11238 15.4779L5.00038 5.73344C5.00038 5.54586 4.97738 5.21524 5.28937 4.75577C5.98635 3.72885 8.41829 2.56077 9.64925 3.16612L18.648 7.4813C18.865 7.5874 19 7.7996 19 8.16339Z" fill="white"/>
<defs>
<radialGradient id="paint0_radial_109_17" cx="0" cy="0" r="1" gradientUnits="userSpaceOnUse" gradientTransform="translate(24 24.5) rotate(-134.397) scale(33.5894 25.3199)">
<stop stop-color="#040139"/>
<stop offset="0.67" stop-color="#0004D3"/>
<stop offset="1" stop-color="#E8FFDA"/>
</radialGradient>
</defs>
</svg>