<svg xmlns="http://www.w3.org/2000/svg" width="24" height="24" viewBox="0 0 24 24" fill="white">
<path d="M11.9915 4C7.57664 4.00466 4 7.47726 4 11.7597C4.00225 12.9752 4.29886 14.1731 4.86591 15.2571C5.43297 16.341 6.25462 17.2805 7.26464 18C7.22224 17.6848 7.23056 17.3594 7.28336 17.0375C6.75545 16.5931 6.29676 16.0767 5.9216 15.5046H7.9128C8.10192 15.2183 8.2968 14.9351 8.6368 14.7287C8.4376 13.9372 8.31584 13.0656 8.29344 12.1477H8.5088C8.57279 11.876 8.67679 11.6146 8.8176 11.3717H8.29872C8.33264 10.4506 8.4656 9.57858 8.6768 8.79082H11.6V10.1702C11.8829 10.2123 12.1546 10.3074 12.4 10.4501V8.79082H15.4712C15.5128 8.94555 15.5504 9.10431 15.5856 9.26525C15.8548 9.22531 16.1282 9.2192 16.399 9.24709C16.3681 9.09436 16.334 8.94224 16.2968 8.79082H18.5192C18.8518 9.47804 19.0661 10.2135 19.1536 10.9679C19.2464 11.7514 19.2482 12.6711 18.9542 13.5706C18.8589 13.9143 18.7366 14.2504 18.5885 14.576C18.769 14.7602 18.9875 14.9343 19.2072 15.112C19.7267 14.0662 19.9976 12.9206 20 11.7597C20 7.47416 16.4182 4 12 4H11.9915ZM12.4 4.88181C13.2429 5.02086 14.0483 5.6944 14.6829 6.81195C14.8874 7.17215 15.0701 7.57659 15.2282 8.0147H12.4V4.88181ZM11.6 4.91238V8.0147H8.92C9.07808 7.57659 9.2608 7.17215 9.46528 6.81195C10.0624 5.76005 10.8114 5.10203 11.6 4.91238ZM9.7568 5.12236C9.38496 5.48737 9.0512 5.93247 8.76432 6.43762C8.49552 6.91096 8.26432 7.44126 8.0744 8.0147H5.9216C6.8072 6.66358 8.1576 5.62938 9.7568 5.12236ZM14.4624 5.19421C15.9661 5.72389 17.2336 6.72566 18.0784 8.0147H16.0728C15.8834 7.44126 15.6525 6.91096 15.3837 6.43762C15.1155 5.96506 14.8054 5.54542 14.4624 5.19421ZM5.48112 8.79082H7.8504C7.6512 9.59193 7.52912 10.4607 7.49792 11.3718H4.81152C4.86125 10.4778 5.08856 9.60143 5.48096 8.79098M4.81152 12.1477H7.49344C7.51408 13.0565 7.62464 13.9252 7.81248 14.7285H5.48096C5.08856 13.9181 4.86125 13.0417 4.81152 12.1477Z" fill="white"/>
<path d="M16.1936 10C14.8797 10 13.8147 11.0792 13.8147 12.4104C13.8147 13.7415 14.8797 14.8207 16.1936 14.8207C17.5072 14.8207 18.5725 13.7415 18.5725 12.4104C18.5725 11.0792 17.5072 10 16.1936 10ZM16.1936 15.1779C13.5657 15.1779 12.3873 16.372 12.3873 19.0345V19.3559C12.3992 19.989 12.6755 20.0077 13.2596 19.9987H19.1276C19.8722 19.998 20.0049 19.9995 19.9999 19.3559V19.0345C19.9999 16.372 18.8212 15.1779 16.1936 15.1779ZM11.1186 10.9032C10.0422 10.9032 9.16931 11.7877 9.16931 12.8785C9.16931 13.9691 10.0422 14.8532 11.1186 14.8532C12.195 14.8532 13.0677 13.9691 13.0677 12.8783C13.0677 11.7875 12.195 10.9032 11.1186 10.9032ZM11.1186 15.1458C8.96568 15.1458 8 16.1244 8 18.3056V18.569C8.00983 19.0877 8.23615 19.103 8.71462 19.0956H11.7474C11.67 17.7959 12.0489 16.4156 12.9925 15.538C12.5149 15.2736 11.8943 15.1458 11.1186 15.1458Z" fill="white"/>
</svg>