<svg xmlns="http://www.w3.org/2000/svg" width="24" height="24" viewBox="0 0 24 24" fill="none">
<rect width="24" height="24" rx="4" fill="url(#paint0_radial_110_21)"/>
<path fill-rule="evenodd" clip-rule="evenodd" d="M12.2252 3.86182C12.235 3.97963 12.2214 4.0982 12.1852 4.21075C12.1491 4.3233 12.0911 4.42762 12.0146 4.51773C11.9381 4.60785 11.8445 4.682 11.7394 4.73593C11.6342 4.78987 11.5194 4.82254 11.4016 4.83207C10.0682 4.94183 8.79193 5.42123 7.71606 6.2164C6.64019 7.01158 5.80737 8.09101 5.31118 9.33343C4.81499 10.5758 4.67509 11.932 4.9072 13.2496C5.13931 14.5671 5.73423 15.7938 6.62512 16.7919C7.51601 17.7899 8.66756 18.5198 9.9504 18.8994C11.2332 19.2791 12.5965 19.2935 13.8871 18.941C15.1777 18.5885 16.3444 17.8831 17.2561 16.9041C18.1679 15.9251 18.7886 14.7112 19.0484 13.3988C19.0714 13.283 19.1169 13.1728 19.1825 13.0746C19.248 12.9763 19.3323 12.892 19.4305 12.8263C19.5286 12.7606 19.6387 12.7149 19.7546 12.6918C19.8704 12.6687 19.9896 12.6686 20.1054 12.6916C20.2213 12.7146 20.3315 12.7601 20.4297 12.8257C20.5279 12.8912 20.6123 12.9755 20.678 13.0736C20.7436 13.1718 20.7893 13.2819 20.8124 13.3977C20.8356 13.5135 20.8356 13.6328 20.8127 13.7486C20.4876 15.389 19.7116 16.9062 18.5718 18.1298C17.432 19.3534 15.9736 20.2349 14.3604 20.6754C12.7472 21.1158 11.0432 21.0977 9.43975 20.623C7.83629 20.1484 6.39696 19.236 5.28345 17.9884C4.16995 16.7408 3.42639 15.2075 3.13632 13.5606C2.84625 11.9137 3.02116 10.2186 3.64139 8.66561C4.26163 7.11266 5.30261 5.76342 6.6474 4.76948C7.99219 3.77554 9.58749 3.17629 11.2541 3.03905C11.3719 3.0292 11.4905 3.04267 11.6031 3.07871C11.7157 3.11474 11.8201 3.17262 11.9103 3.24905C12.0005 3.32547 12.0747 3.41893 12.1288 3.52407C12.1828 3.62922 12.2156 3.74399 12.2252 3.86182Z" fill="white"/>
<path fill-rule="evenodd" clip-rule="evenodd" d="M11.2082 7.48383C11.2941 7.70622 11.2882 7.95363 11.1918 8.17166C11.0953 8.38969 10.9162 8.56049 10.6939 8.64651C10.1596 8.85344 9.68246 9.18502 9.30223 9.61364C8.922 10.0423 8.64967 10.5555 8.50791 11.1106C8.36615 11.6658 8.35906 12.2468 8.48724 12.8052C8.61542 13.3637 8.87515 13.8834 9.24481 14.3212C9.61448 14.7589 10.0834 15.102 10.6125 15.3219C11.1415 15.5418 11.7155 15.6322 12.2865 15.5854C12.8576 15.5386 13.4092 15.3561 13.8955 15.053C14.3817 14.75 14.7885 14.3351 15.082 13.843C15.1406 13.738 15.2197 13.6458 15.3145 13.5719C15.4094 13.4979 15.5181 13.4438 15.6343 13.4126C15.7505 13.3815 15.8717 13.3739 15.9908 13.3904C16.11 13.407 16.2246 13.4472 16.3279 13.5088C16.4312 13.5704 16.5211 13.6521 16.5922 13.7491C16.6634 13.8461 16.7144 13.9563 16.7421 14.0733C16.7699 14.1903 16.774 14.3117 16.754 14.4304C16.7341 14.549 16.6905 14.6623 16.626 14.7638C16.1858 15.5021 15.5756 16.1246 14.8462 16.5794C14.1168 17.0342 13.2893 17.3081 12.4326 17.3784C11.5759 17.4486 10.7149 17.3132 9.92113 16.9833C9.12739 16.6534 8.42395 16.1387 7.8694 15.4819C7.31486 14.8251 6.92526 14.0454 6.73305 13.2076C6.54084 12.3698 6.55159 11.4982 6.76441 10.6654C6.97722 9.83259 7.38593 9.06269 7.95651 8.41981C8.52708 7.77693 9.24301 7.27969 10.0446 6.96949C10.1548 6.92681 10.2723 6.90626 10.3904 6.90901C10.5085 6.91177 10.625 6.93777 10.733 6.98554C10.8411 7.0333 10.9387 7.1019 11.0202 7.1874C11.1017 7.2729 11.1656 7.37363 11.2082 7.48383Z" fill="white"/>
<path fill-rule="evenodd" clip-rule="evenodd" d="M15.822 8.71936C15.8988 8.8091 15.9571 8.91308 15.9937 9.02537C16.0303 9.13766 16.0444 9.25605 16.0352 9.37379C16.026 9.49152 15.9937 9.6063 15.9402 9.71155C15.8866 9.81681 15.8129 9.91049 15.7231 9.98724L12.5759 12.6849C12.4862 12.7616 12.3822 12.8199 12.2699 12.8565C12.1576 12.8931 12.0392 12.9072 11.9215 12.898C11.8037 12.8888 11.689 12.8565 11.5837 12.803C11.4785 12.7494 11.3848 12.6757 11.308 12.586C11.2313 12.4962 11.1729 12.3922 11.1364 12.2799C11.0998 12.1676 11.0857 12.0493 11.0949 11.9315C11.1041 11.8138 11.1364 11.699 11.1899 11.5938C11.2434 11.4885 11.3172 11.3948 11.4069 11.3181L14.5542 8.62044C14.6439 8.54368 14.7479 8.48535 14.8602 8.44878C14.9725 8.41221 15.0909 8.39811 15.2086 8.4073C15.3263 8.41648 15.4411 8.44877 15.5464 8.50231C15.6516 8.55585 15.7453 8.62961 15.822 8.71936Z" fill="white"/>
<path d="M11.5418 11.1022C11.7189 11.1022 11.8943 11.1371 12.058 11.2049C12.2216 11.2727 12.3703 11.3721 12.4956 11.4973C12.6208 11.6226 12.7202 11.7712 12.7879 11.9349C12.8557 12.0985 12.8906 12.2739 12.8906 12.4511C12.8906 12.6282 12.8557 12.8036 12.7879 12.9672C12.7202 13.1309 12.6208 13.2796 12.4956 13.4048C12.3703 13.5301 12.2216 13.6294 12.058 13.6972C11.8943 13.765 11.7189 13.7999 11.5418 13.7999C11.1841 13.7999 10.841 13.6578 10.5881 13.4048C10.3351 13.1519 10.193 12.8088 10.193 12.4511C10.193 12.0933 10.3351 11.7503 10.5881 11.4973C10.841 11.2444 11.1841 11.1022 11.5418 11.1022Z" fill="white"/>
<path fill-rule="evenodd" clip-rule="evenodd" d="M16.1521 8.4199L17.1008 8.84792L17.5558 8.52331C17.2937 8.36017 17.0665 8.14674 16.8873 7.89532C16.7081 7.64391 16.5805 7.35949 16.5118 7.0585L16.0568 7.38311L16.1521 8.4199ZM17.1206 4.41572C17.1954 4.36235 17.2827 4.32899 17.374 4.31881C17.4654 4.30863 17.5578 4.32196 17.6426 4.35754C17.7274 4.39312 17.8016 4.44978 17.8584 4.52212C17.9151 4.59447 17.9524 4.6801 17.9667 4.77091L18.2581 6.62148C18.271 6.70419 18.303 6.78275 18.3515 6.85095C18.4001 6.91915 18.4638 6.97512 18.5377 7.01444L20.1923 7.89206C20.2734 7.93512 20.3423 7.9982 20.3922 8.07532C20.4422 8.15244 20.4716 8.24104 20.4778 8.33273C20.4839 8.42442 20.4665 8.51615 20.4272 8.59923C20.388 8.68231 20.3281 8.75398 20.2534 8.80746L17.5558 10.7318C17.479 10.7866 17.3892 10.8204 17.2953 10.8297C17.2015 10.839 17.1068 10.8235 17.0208 10.7848L14.744 9.75792C14.6569 9.7187 14.5818 9.65708 14.5264 9.57936C14.4709 9.50163 14.4371 9.41058 14.4283 9.31551L14.199 6.8283C14.1904 6.73422 14.2066 6.63952 14.2461 6.55367C14.2855 6.46783 14.3468 6.39385 14.4238 6.33913L17.1206 4.41572Z" fill="white"/>
<defs>
<radialGradient id="paint0_radial_110_21" cx="0" cy="0" r="1" gradientUnits="userSpaceOnUse" gradientTransform="rotate(45.5907) scale(34.2965)">
<stop stop-color="#FFA8A8"/>
<stop offset="0.620573" stop-color="#EF0000"/>
<stop offset="1" stop-color="#430000"/>
</radialGradient>
</defs>
</svg>