<svg xmlns="http://www.w3.org/2000/svg" width="24" height="24" viewBox="0 0 24 24" fill="none">
<rect width="24" height="24" rx="4" fill="url(#paint0_linear_110_33)"/>
<path d="M15.8463 12.8205V6.66654C15.8463 6.34011 15.7166 6.02705 15.4858 5.79623C15.255 5.56541 14.9419 5.43574 14.6155 5.43574C14.2891 5.43574 13.976 5.56541 13.7452 5.79623C13.5144 6.02705 13.3847 6.34011 13.3847 6.66654M13.3847 6.66654V12M13.3847 6.66654V5.02548C13.3847 4.86385 13.3529 4.7038 13.291 4.55447C13.2292 4.40514 13.1385 4.26946 13.0242 4.15517C12.9099 4.04088 12.7743 3.95022 12.6249 3.88837C12.4756 3.82651 12.3155 3.79468 12.1539 3.79468C11.9923 3.79468 11.8322 3.82651 11.6829 3.88837C11.5336 3.95022 11.3979 4.04088 11.2836 4.15517C11.1693 4.26946 11.0787 4.40514 11.0168 4.55447C10.955 4.7038 10.9231 4.86385 10.9231 5.02548V12M10.9231 6.66654C10.9231 6.34011 10.7934 6.02705 10.5626 5.79623C10.3318 5.56541 10.0188 5.43574 9.69232 5.43574C9.36589 5.43574 9.05284 5.56541 8.82202 5.79623C8.5912 6.02705 8.46152 6.34011 8.46152 6.66654V12" stroke="white" stroke-width="1.4" stroke-linecap="round" stroke-linejoin="round"/>
<path d="M8.46154 8.30761C8.46154 7.98118 8.33186 7.66812 8.10104 7.43731C7.87022 7.20649 7.55717 7.07681 7.23074 7.07681C6.90431 7.07681 6.59125 7.20649 6.36043 7.43731C6.12961 7.66812 5.99994 7.98118 5.99994 8.30761V15.2821C5.99994 16.5878 6.51863 17.8401 7.44191 18.7634C8.36519 19.6866 9.61742 20.2053 10.9231 20.2053H12.5642H12.3935C13.2089 20.2055 14.0115 20.0031 14.7293 19.6164C15.4471 19.2297 16.0576 18.6708 16.506 17.9899L16.6669 17.7437C16.9229 17.351 17.8216 15.7843 19.3631 13.0437C19.5203 12.7644 19.5623 12.4347 19.4801 12.1249C19.398 11.815 19.1982 11.5494 18.9233 11.3846C18.6304 11.2093 18.2873 11.1367 17.9485 11.1784C17.6096 11.22 17.2943 11.3734 17.0525 11.6144L15.8463 12.8205" stroke="white" stroke-width="1.4" stroke-linecap="round" stroke-linejoin="round"/>
<defs>
<linearGradient id="paint0_linear_110_33" x1="0" y1="0" x2="24" y2="24" gradientUnits="userSpaceOnUse">
<stop stop-color="#F2D9F5"/>
<stop offset="0.5" stop-color="#A800D6"/>
<stop offset="1" stop-color="#20023A"/>
</linearGradient>
</defs>
</svg>