<svg xmlns="http://www.w3.org/2000/svg" width="24" height="24" viewBox="0 0 24 24" fill="none">
<path d="M12.2258 1.05841L16.1309 3.30192C16.1996 3.34144 16.2567 3.39831 16.2964 3.4668C16.336 3.53529 16.3568 3.61298 16.3567 3.69202V5.67486L20.8235 8.24195C20.8923 8.28147 20.9493 8.33834 20.989 8.40683C21.0286 8.47532 21.0494 8.553 21.0493 8.63204V12.8656L22.7742 13.8561C22.843 13.8956 22.9001 13.9525 22.9397 14.021C22.9794 14.0895 23.0002 14.1672 23 14.2462V18.7332C23.0002 18.8123 22.9794 18.8899 22.9397 18.9584C22.9001 19.0269 22.843 19.0838 22.7742 19.1233L18.8691 21.3668C18.8005 21.4063 18.7226 21.427 18.6434 21.427C18.5641 21.427 18.4862 21.4063 18.4176 21.3668L16.6908 20.3745L12.2258 22.9398C12.1571 22.9792 12.0793 23 12 23C11.9207 23 11.8429 22.9792 11.7742 22.9398L7.3092 20.3745L5.58243 21.3668C5.51378 21.4063 5.43592 21.427 5.35665 21.427C5.27738 21.427 5.19952 21.4063 5.13087 21.3668L1.22578 19.1233C1.157 19.0838 1.09992 19.0269 1.06028 18.9584C1.02063 18.8899 0.999844 18.8123 1 18.7332V14.2462C0.999844 14.1672 1.02063 14.0895 1.06028 14.021C1.09992 13.9525 1.157 13.8956 1.22578 13.8561L2.95074 12.8656V8.63204C2.95058 8.553 2.97137 8.47532 3.01101 8.40683C3.05066 8.33834 3.10774 8.28147 3.17652 8.24195L7.64335 5.67486V3.69381C7.64319 3.61477 7.66398 3.53709 7.70363 3.4686C7.74327 3.40011 7.80035 3.34324 7.86913 3.30372L11.7742 1.06021C11.8429 1.02077 11.9207 1 12 1C12.0793 1 12.1571 1.01897 12.2258 1.05841ZM14.5161 19.1233C14.4473 19.0838 14.3902 19.0269 14.3506 18.9584C14.3109 18.8899 14.2902 18.8123 14.2903 18.7332V14.2462C14.2902 14.1672 14.3109 14.0895 14.3506 14.021C14.3902 13.9525 14.4473 13.8956 14.5161 13.8561L18.4176 11.6126C18.4862 11.5732 18.5641 11.5524 18.6434 11.5524C18.7226 11.5524 18.8005 11.5732 18.8691 11.6126L20.1461 12.3461V8.89091L16.3567 6.71572V8.17903C16.3568 8.25807 16.336 8.33575 16.2964 8.40424C16.2567 8.47273 16.1996 8.52961 16.1309 8.56913L12.2258 10.8126C12.1571 10.8521 12.0793 10.8728 12 10.8728C11.9207 10.8728 11.8429 10.8521 11.7742 10.8126L7.86913 8.56913C7.80035 8.52961 7.74327 8.47273 7.70363 8.40424C7.66398 8.33575 7.64319 8.25807 7.64335 8.17903V6.71392L3.85386 8.89091V12.3461L5.13087 11.6126C5.19952 11.5732 5.27738 11.5524 5.35665 11.5524C5.43592 11.5524 5.51378 11.5732 5.58243 11.6126L9.48391 13.8561C9.55269 13.8956 9.60977 13.9525 9.64941 14.021C9.68906 14.0895 9.70985 14.1672 9.70969 14.2462V18.7332C9.70985 18.8123 9.68906 18.8899 9.64941 18.9584C9.60977 19.0269 9.55269 19.0838 9.48391 19.1233L8.21051 19.8568L12 22.0338L15.7895 19.8568L14.5161 19.1233ZM8.54647 7.91836L11.5484 9.64414V6.1854L8.54647 4.46861V7.91836ZM15.4535 7.91836V4.46861L12.4516 6.1854V9.64414L15.4535 7.91836ZM12 1.96444L9.00164 3.69022L12 5.40521L14.9984 3.69022L12 1.96444ZM1.90312 18.4743L4.90148 20.1965V16.7432L1.90312 15.0246V18.4743ZM8.80657 18.4743V15.0228L5.8046 16.7432V20.2001L8.80657 18.4743ZM5.35665 12.5222L2.35468 14.248L5.35485 15.9648L8.3532 14.2462L5.35665 12.5222ZM15.1934 18.4726L18.1918 20.1983V16.7432L15.1934 15.0246V18.4726ZM22.0969 18.4726V15.0246L19.0949 16.7432V20.1983L22.0969 18.4726ZM18.6434 12.5222L15.645 14.248L18.6434 15.9648L21.6417 14.2462L18.6434 12.5222Z" fill="#398CCB"/>
</svg>